<svg
  version="1.1"
  id="Layer_1"
  xmlns="http://www.w3.org/2000/svg"
  xmlns:xlink="http://www.w3.org/1999/xlink"
  x="0px"
  y="0px"
  width="100%"
  viewBox="0 0 500 500"
  enable-background="new 0 0 500 500"
  xml:space="preserve"
>
<path
    fill="#fff"
    opacity="0.000000"
    stroke="none"
    d="
M501.000000,285.000000 
	C501.000000,356.963104 501.000000,428.926178 501.000000,500.944641 
	C334.455688,500.944641 167.911362,500.944641 1.000000,500.944641 
	C1.000000,455.313080 1.000000,409.625214 1.367458,363.476166 
	C5.496628,366.560791 10.235920,367.910767 15.124574,367.928070 
	C51.389198,368.056580 87.654823,368.087189 123.919395,367.951630 
	C137.120209,367.902283 142.976135,359.733551 141.904114,350.530334 
	C142.020782,337.724060 142.068695,325.382019 142.429901,313.148376 
	C144.253357,314.517151 145.716232,315.839905 147.281113,317.028351 
	C161.367737,327.726105 175.494949,338.370575 189.565994,349.088745 
	C208.737274,363.691833 227.854797,378.365448 247.023651,392.971710 
	C261.483978,403.990143 275.948273,415.004181 290.489136,425.915741 
	C298.816864,432.164917 306.631775,438.936829 318.460266,438.199585 
	C331.049377,437.414948 341.068665,428.942444 341.039398,415.471588 
	C340.937622,368.647675 340.996765,321.823456 340.996979,274.999329 
	C340.997284,212.678268 341.011444,150.357208 340.985443,88.036148 
	C340.982422,80.855675 338.876678,74.350418 332.833313,70.050827 
	C323.004272,63.057869 310.612732,63.071522 300.682526,69.892860 
	C295.564056,73.408928 290.713165,77.314758 285.743774,81.047653 
	C273.317169,90.382210 260.856567,99.672020 248.474258,109.064987 
	C229.167221,123.710899 209.920502,138.436325 190.635269,153.111023 
	C174.474411,165.408325 158.294998,177.681274 142.071045,189.501099 
	C141.956696,176.701843 141.895111,164.366486 141.904144,151.614746 
	C141.984634,141.238068 135.601883,135.587738 124.531662,136.099487 
	C113.969757,135.691299 103.869736,135.013367 93.774391,135.077057 
	C67.681473,135.241699 41.590618,135.733551 15.498977,136.097626 
	C15.333821,136.099930 15.169240,136.143372 14.575652,136.095367 
	C9.764607,137.348740 5.382302,138.674362 0.999999,140.000000 
	C1.000000,93.690483 1.000000,47.380974 1.000000,1.035729 
	C167.557159,1.035729 334.114349,1.035729 501.000000,1.035729 
	C501.000000,71.353889 501.000000,141.708282 500.704529,212.867981 
	C498.218292,208.299545 496.304016,202.792404 493.786560,197.576370 
	C485.242554,179.873657 473.009949,164.944931 458.964630,151.309479 
	C452.862305,145.385223 436.828949,145.814453 432.511383,149.429916 
	C429.762726,151.731583 426.829468,155.178009 426.283722,158.490784 
	C424.605988,168.675400 426.979065,177.327316 435.204315,185.185104 
	C443.580658,193.187195 450.851929,202.848373 456.624756,212.919388 
	C461.515045,221.450653 463.575653,231.603943 466.937622,241.500809 
	C466.952911,246.642380 466.919098,251.322571 466.556458,256.222107 
	C466.120270,257.764435 466.207428,259.138458 465.876099,260.402832 
	C461.260620,278.016602 452.657593,293.453400 439.947021,306.463379 
	C432.882477,313.694305 425.255188,320.372162 418.078644,327.497833 
	C412.026978,333.506622 411.671448,344.838776 415.675446,352.479553 
	C419.774231,360.301270 431.103058,361.644073 438.923706,359.185547 
	C444.266113,357.506104 449.255280,353.621124 453.507843,349.741638 
	C473.122559,331.847717 489.890442,311.802185 499.062408,286.342529 
	C499.279297,285.740479 500.335358,285.440765 501.000000,285.000000 
M385.573456,168.195099 
	C380.089722,167.650024 374.790131,168.068420 369.326416,171.228836 
	C360.293884,180.021820 360.053802,193.741379 369.468658,202.760529 
	C378.178864,211.104630 385.077606,220.588104 389.750885,231.593109 
	C392.384491,237.795090 394.165131,244.205505 393.144745,251.332657 
	C390.335144,270.957489 378.812012,284.939209 364.458649,297.200989 
	C357.958771,302.753662 353.426056,308.619293 353.750519,318.179718 
	C354.167206,330.457825 361.548981,335.203064 371.141174,335.928467 
	C376.951965,336.367889 382.600128,335.348236 387.029358,330.982727 
	C393.388336,324.715179 399.706390,318.406128 406.656799,311.834686 
	C408.476105,309.570068 410.295410,307.305450 412.703552,304.790497 
	C413.172974,303.875641 413.642426,302.960815 414.736053,301.760559 
	C418.389069,295.066498 422.823364,288.665710 425.477264,281.596558 
	C428.176453,274.406799 429.121521,266.558441 430.972290,258.334747 
	C430.928528,257.887268 430.884766,257.439789 431.012177,256.157104 
	C430.710022,248.753784 430.407867,241.350449 430.018066,233.211441 
	C429.956512,232.475296 429.894989,231.739166 429.970123,230.236160 
	C429.348999,228.140442 428.727875,226.044724 428.017609,223.154724 
	C427.881622,222.184174 427.899628,221.160690 427.586884,220.250900 
	C421.400116,202.252777 411.419312,186.647934 397.225220,173.991379 
	C394.302979,171.385681 389.810516,170.540985 385.573456,168.195099 
z"
  />
<path
    fill="#009ED9"
    opacity="1.000000"
    stroke="none"
    d="
M141.835358,350.994629 
	C142.976135,359.733551 137.120209,367.902283 123.919395,367.951630 
	C87.654823,368.087189 51.389198,368.056580 15.124574,367.928070 
	C10.235920,367.910767 5.496628,366.560791 1.367458,363.007507 
	C1.000000,288.979095 1.000000,214.958206 0.999999,140.468658 
	C5.382302,138.674362 9.764607,137.348740 14.601393,136.482925 
	C15.481140,140.746765 18.448980,139.965866 20.788223,139.971863 
	C40.561569,140.022568 60.335102,140.001877 80.108582,140.001740 
	C93.235512,140.001648 106.362442,139.998398 119.489372,140.000595 
	C122.220520,140.001053 125.085342,140.211334 124.995682,136.167618 
	C135.601883,135.587738 141.984634,141.238068 141.731079,151.984985 
	C141.368500,164.413788 141.230759,176.055847 141.174332,187.698318 
	C141.170670,188.452332 141.792786,189.209366 142.123810,189.964996 
	C158.294998,177.681274 174.474411,165.408325 190.635269,153.111023 
	C209.920502,138.436325 229.167221,123.710899 248.474258,109.064987 
	C260.856567,99.672020 273.317169,90.382210 285.743774,81.047653 
	C290.713165,77.314758 295.564056,73.408928 300.682526,69.892860 
	C310.612732,63.071522 323.004272,63.057869 332.833313,70.050827 
	C338.876678,74.350418 340.982422,80.855675 340.985443,88.036148 
	C341.011444,150.357208 340.997284,212.678268 340.996979,274.999329 
	C340.996765,321.823456 340.937622,368.647675 341.039398,415.471588 
	C341.068665,428.942444 331.049377,437.414948 318.460266,438.199585 
	C306.631775,438.936829 298.816864,432.164917 290.489136,425.915741 
	C275.948273,415.004181 261.483978,403.990143 247.023651,392.971710 
	C227.854797,378.365448 208.737274,363.691833 189.565994,349.088745 
	C175.494949,338.370575 161.367737,327.726105 147.281113,317.028351 
	C145.716232,315.839905 144.253357,314.517151 142.150299,313.135254 
	C141.371017,313.005951 141.184586,312.998077 140.986786,312.638123 
	C140.321442,311.191071 139.667480,310.096161 139.006683,308.726807 
	C138.900162,307.930664 138.800446,307.408936 138.700729,306.887177 
	C138.020111,319.724854 137.992691,332.465302 138.062805,345.205200 
	C138.069748,346.469574 138.671829,347.730652 139.217346,349.171570 
	C139.955231,349.565887 140.473450,349.781921 141.118851,350.175079 
	C141.425461,350.581940 141.621902,350.796082 141.835358,350.994629 
M115.588066,244.290604 
	C115.391853,242.165802 115.030273,240.041397 115.025299,237.916153 
	C114.981117,219.051682 115.026451,200.186951 114.963493,181.322586 
	C114.956459,179.215149 114.440407,177.109406 113.847443,174.354584 
	C112.204483,171.915329 110.561531,169.476074 109.463882,166.624329 
	C111.296539,162.275528 110.060257,160.084167 105.222466,160.064865 
	C80.493523,159.966141 55.763680,159.948135 31.034866,160.059753 
	C24.738638,160.088181 22.351311,164.190262 24.705381,170.751923 
	C24.137524,173.083527 23.078695,175.414154 23.074131,177.746857 
	C22.978144,226.811630 23.037003,275.876709 22.948299,324.941498 
	C22.938890,330.145996 24.645939,334.115997 28.754871,337.596863 
	C27.532820,340.723663 28.909460,341.975311 31.948048,341.975891 
	C56.401852,341.980377 80.855675,341.991425 105.309448,341.962891 
	C109.416946,341.958099 110.763245,340.010101 109.711494,336.011353 
	C111.127701,334.045227 112.543900,332.079071 113.973091,329.495209 
	C113.967873,329.289337 113.962646,329.083435 114.013351,328.436646 
	C114.013351,328.436646 114.160439,328.017242 114.762741,327.640991 
	C115.118156,326.923950 115.772743,326.211304 115.783386,325.489166 
	C115.910034,316.897034 115.976990,308.303558 115.989151,299.710327 
	C116.014481,281.806641 115.997520,263.902863 116.354736,245.455734 
	C116.561424,244.278214 116.768112,243.100693 116.974800,241.923172 
	C116.703018,241.890869 116.431244,241.858566 116.159462,241.826263 
	C116.103867,242.888245 116.048264,243.950226 115.588066,244.290604 
M319.661255,123.967354 
	C323.643097,123.674263 323.790863,120.646965 323.872101,117.790863 
	C323.961273,114.656754 321.779541,113.974907 318.864655,113.369705 
	C313.321259,105.002899 305.048859,98.692986 295.972870,105.044968 
	C293.701080,106.634911 291.621490,108.634949 289.848633,110.773956 
	C286.217865,115.154602 286.053741,121.336853 289.099915,126.304466 
	C292.827057,132.382645 300.044891,136.158463 305.452850,135.047516 
	C311.914337,133.720154 315.761688,129.328339 319.661255,123.967354 
z"
  />
<path
    fill="#019ED9"
    opacity="1.000000"
    stroke="none"
    d="
M501.000000,284.531372 
	C500.335358,285.440765 499.279297,285.740479 499.062408,286.342529 
	C489.890442,311.802185 473.122559,331.847717 453.507843,349.741638 
	C449.255280,353.621124 444.266113,357.506104 438.923706,359.185547 
	C431.103058,361.644073 419.774231,360.301270 415.675446,352.479553 
	C411.671448,344.838776 412.026978,333.506622 418.078644,327.497833 
	C425.255188,320.372162 432.882477,313.694305 439.947021,306.463379 
	C452.657593,293.453400 461.260620,278.016602 465.876099,260.402832 
	C466.207428,259.138458 466.120270,257.764435 466.949799,256.179596 
	C473.514587,253.904083 470.286499,249.003708 470.890808,245.393478 
	C471.340179,242.708603 469.773712,241.070511 466.888458,241.039444 
	C463.575653,231.603943 461.515045,221.450653 456.624756,212.919388 
	C450.851929,202.848373 443.580658,193.187195 435.204315,185.185104 
	C426.979065,177.327316 424.605988,168.675400 426.283722,158.490784 
	C426.829468,155.178009 429.762726,151.731583 432.511383,149.429916 
	C436.828949,145.814453 452.862305,145.385223 458.964630,151.309479 
	C473.009949,164.944931 485.242554,179.873657 493.786560,197.576370 
	C496.304016,202.792404 498.218292,208.299545 500.704529,213.336639 
	C501.000000,236.687561 501.000000,260.375122 501.000000,284.531372 
z"
  />
<path
    fill="#019ED9"
    opacity="1.000000"
    stroke="none"
    d="
M429.833466,231.003021 
	C429.894989,231.739166 429.956512,232.475296 429.855896,233.896454 
	C430.076202,242.051743 430.458618,249.522018 430.841034,256.992310 
	C430.884766,257.439789 430.928528,257.887268 430.601746,258.848969 
	C429.521881,261.520447 428.541229,263.630005 428.152161,265.843536 
	C426.793427,273.574097 424.530457,280.689056 419.707306,287.261688 
	C416.703888,291.354492 415.901886,297.062744 414.111877,302.045990 
	C413.642426,302.960815 413.172974,303.875641 412.037537,304.939758 
	C407.335205,305.716705 406.338165,308.649963 406.041870,312.114777 
	C399.706390,318.406128 393.388336,324.715179 387.029358,330.982727 
	C382.600128,335.348236 376.951965,336.367889 371.141174,335.928467 
	C361.548981,335.203064 354.167206,330.457825 353.750519,318.179718 
	C353.426056,308.619293 357.958771,302.753662 364.458649,297.200989 
	C378.812012,284.939209 390.335144,270.957489 393.144745,251.332657 
	C394.165131,244.205505 392.384491,237.795090 389.750885,231.593109 
	C385.077606,220.588104 378.178864,211.104630 369.468658,202.760529 
	C360.053802,193.741379 360.293884,180.021820 369.803467,171.502228 
	C373.823303,172.178604 377.360321,172.646637 380.910767,172.964325 
	C383.834137,173.225891 385.553192,171.781540 386.041809,168.884598 
	C389.810516,170.540985 394.302979,171.385681 397.225220,173.991379 
	C411.419312,186.647934 421.400116,202.252777 427.586884,220.250900 
	C427.899628,221.160690 427.881622,222.184174 427.864441,223.838409 
	C428.418671,226.682404 429.126068,228.842712 429.833466,231.003021 
z"
  />
<path
    fill="#02A1DF"
    opacity="1.000000"
    stroke="none"
    d="
M124.531662,136.099487 
	C125.085342,140.211334 122.220520,140.001053 119.489372,140.000595 
	C106.362442,139.998398 93.235512,140.001648 80.108582,140.001740 
	C60.335102,140.001877 40.561569,140.022568 20.788223,139.971863 
	C18.448980,139.965866 15.481140,140.746765 15.030132,136.555176 
	C15.169240,136.143372 15.333821,136.099930 15.498977,136.097626 
	C41.590618,135.733551 67.681473,135.241699 93.774391,135.077057 
	C103.869736,135.013367 113.969757,135.691299 124.531662,136.099487 
z"
  />
<path
    fill="#079FD9"
    opacity="1.000000"
    stroke="none"
    d="
M414.423981,301.903259 
	C415.901886,297.062744 416.703888,291.354492 419.707306,287.261688 
	C424.530457,280.689056 426.793427,273.574097 428.152161,265.843536 
	C428.541229,263.630005 429.521881,261.520447 430.532959,259.180847 
	C429.121521,266.558441 428.176453,274.406799 425.477264,281.596558 
	C422.823364,288.665710 418.389069,295.066498 414.423981,301.903259 
z"
  />
<path
    fill="#04A2DC"
    opacity="1.000000"
    stroke="none"
    d="
M385.807617,168.539856 
	C385.553192,171.781540 383.834137,173.225891 380.910767,172.964325 
	C377.360321,172.646637 373.823303,172.178604 370.141968,171.473129 
	C374.790131,168.068420 380.089722,167.650024 385.807617,168.539856 
z"
  />
<path
    fill="#0CA2DA"
    opacity="1.000000"
    stroke="none"
    d="
M466.937622,241.500809 
	C469.773712,241.070511 471.340179,242.708603 470.890808,245.393478 
	C470.286499,249.003708 473.514587,253.904083 467.278564,255.960297 
	C466.919098,251.322571 466.952911,246.642380 466.937622,241.500809 
z"
  />
<path
    fill="#079FD9"
    opacity="1.000000"
    stroke="none"
    d="
M430.926605,256.574707 
	C430.458618,249.522018 430.076202,242.051743 429.899719,234.264282 
	C430.407867,241.350449 430.710022,248.753784 430.926605,256.574707 
z"
  />
<path
    fill="#0FA3DB"
    opacity="1.000000"
    stroke="none"
    d="
M142.071045,189.501099 
	C141.792786,189.209366 141.170670,188.452332 141.174332,187.698318 
	C141.230759,176.055847 141.368500,164.413788 141.660461,152.401382 
	C141.895111,164.366486 141.956696,176.701843 142.071045,189.501099 
z"
  />
<path
    fill="#0FA3DB"
    opacity="1.000000"
    stroke="none"
    d="
M141.904114,350.530334 
	C141.621902,350.796082 141.425461,350.581940 141.120926,349.706696 
	C140.996597,337.037537 140.997375,325.013885 140.998169,312.990234 
	C141.184586,312.998077 141.371017,313.005951 141.837021,313.026917 
	C142.068695,325.382019 142.020782,337.724060 141.904114,350.530334 
z"
  />
<path
    fill="#079FD9"
    opacity="1.000000"
    stroke="none"
    d="
M406.349335,311.974731 
	C406.338165,308.649963 407.335205,305.716705 411.743134,305.064941 
	C410.295410,307.305450 408.476105,309.570068 406.349335,311.974731 
z"
  />
<path
    fill="#079FD9"
    opacity="1.000000"
    stroke="none"
    d="
M429.901794,230.619598 
	C429.126068,228.842712 428.418671,226.682404 427.909027,224.235535 
	C428.727875,226.044724 429.348999,228.140442 429.901794,230.619598 
z"
  />
<path
    fill="#fff"
    opacity="0.000000"
    stroke="none"
    d="
M113.960098,330.112946 
	C112.543900,332.079071 111.127701,334.045227 108.951340,336.183044 
	C107.257614,336.571899 106.324036,336.978607 105.390465,336.978607 
	C79.938728,336.979095 54.486988,336.938019 29.035250,336.903931 
	C24.645939,334.115997 22.938890,330.145996 22.948299,324.941498 
	C23.037003,275.876709 22.978144,226.811630 23.074131,177.746857 
	C23.078695,175.414154 24.137524,173.083527 24.935658,170.039825 
	C27.929363,168.217300 30.682123,166.175262 33.457901,166.143463 
	C56.203556,165.882935 78.953606,165.965836 101.701981,166.042557 
	C104.108597,166.050674 106.513092,166.690216 108.918571,167.036819 
	C110.561531,169.476074 112.204483,171.915329 113.935577,175.143509 
	C114.016159,202.694473 113.985397,229.456543 114.008011,256.218567 
	C114.028229,280.151489 114.107323,304.084351 114.160439,328.017242 
	C114.160439,328.017242 114.013351,328.436646 113.739502,328.758301 
	C113.630463,329.424255 113.795280,329.768616 113.960098,330.112946 
z"
  />
<path
    fill="#fff"
    opacity="0.000000"
    stroke="none"
    d="
M318.884705,124.001099 
	C315.761688,129.328339 311.914337,133.720154 305.452850,135.047516 
	C300.044891,136.158463 292.827057,132.382645 289.099915,126.304466 
	C286.053741,121.336853 286.217865,115.154602 289.848633,110.773956 
	C291.621490,108.634949 293.701080,106.634911 295.972870,105.044968 
	C305.048859,98.692986 313.321259,105.002899 318.959229,114.084167 
	C318.997406,117.866127 318.941071,120.933609 318.884705,124.001099 
z"
  />
<path
    fill="#04A2DC"
    opacity="1.000000"
    stroke="none"
    d="
M109.191223,166.830566 
	C106.513092,166.690216 104.108597,166.050674 101.701981,166.042557 
	C78.953606,165.965836 56.203556,165.882935 33.457901,166.143463 
	C30.682123,166.175262 27.929363,168.217300 24.997343,169.655731 
	C22.351311,164.190262 24.738638,160.088181 31.034866,160.059753 
	C55.763680,159.948135 80.493523,159.966141 105.222466,160.064865 
	C110.060257,160.084167 111.296539,162.275528 109.191223,166.830566 
z"
  />
<path
    fill="#05A3DE"
    opacity="1.000000"
    stroke="none"
    d="
M28.895061,337.250397 
	C54.486988,336.938019 79.938728,336.979095 105.390465,336.978607 
	C106.324036,336.978607 107.257614,336.571899 108.602882,336.262726 
	C110.763245,340.010101 109.416946,341.958099 105.309448,341.962891 
	C80.855675,341.991425 56.401852,341.980377 31.948048,341.975891 
	C28.909460,341.975311 27.532820,340.723663 28.895061,337.250397 
z"
  />
<path
    fill="#0CA2DA"
    opacity="1.000000"
    stroke="none"
    d="
M114.461594,327.829102 
	C114.107323,304.084351 114.028229,280.151489 114.008011,256.218567 
	C113.985397,229.456543 114.016159,202.694473 114.092056,175.467651 
	C114.440407,177.109406 114.956459,179.215149 114.963493,181.322586 
	C115.026451,200.186951 114.981117,219.051682 115.025299,237.916153 
	C115.030273,240.041397 115.391853,242.165802 115.791656,244.898071 
	C115.995255,245.505524 115.997948,245.999146 115.997948,245.999146 
	C115.997520,263.902863 116.014481,281.806641 115.989151,299.710327 
	C115.976990,308.303558 115.910034,316.897034 115.783386,325.489166 
	C115.772743,326.211304 115.118156,326.923950 114.461594,327.829102 
z"
  />
<path
    fill="#0199D6"
    opacity="1.000000"
    stroke="none"
    d="
M140.986786,312.638123 
	C140.997375,325.013885 140.996597,337.037537 140.993744,349.529572 
	C140.473450,349.781921 139.955231,349.565887 139.217834,348.703705 
	C139.003616,335.038788 139.008560,322.019989 139.013504,309.001221 
	C139.667480,310.096161 140.321442,311.191071 140.986786,312.638123 
z"
  />
<path
    fill="#0DA0DA"
    opacity="1.000000"
    stroke="none"
    d="
M139.006683,308.726807 
	C139.008560,322.019989 139.003616,335.038788 138.998169,348.525391 
	C138.671829,347.730652 138.069748,346.469574 138.062805,345.205200 
	C137.992691,332.465302 138.020111,319.724854 138.700729,306.887177 
	C138.800446,307.408936 138.900162,307.930664 139.006683,308.726807 
z"
  />
<path
    fill="#09A0DA"
    opacity="1.000000"
    stroke="none"
    d="
M319.272980,123.984222 
	C318.941071,120.933609 318.997406,117.866127 319.110931,114.398994 
	C321.779541,113.974907 323.961273,114.656754 323.872101,117.790863 
	C323.790863,120.646965 323.643097,123.674263 319.272980,123.984222 
z"
  />
<path
    fill="#0A9ED9"
    opacity="1.000000"
    stroke="none"
    d="
M116.176346,245.727448 
	C115.997948,245.999146 115.995255,245.505524 115.993958,245.258865 
	C116.048264,243.950226 116.103867,242.888245 116.159462,241.826263 
	C116.431244,241.858566 116.703018,241.890869 116.974800,241.923172 
	C116.768112,243.100693 116.561424,244.278214 116.176346,245.727448 
z"
  />
<path
    fill="#0CA2DA"
    opacity="1.000000"
    stroke="none"
    d="
M113.966591,329.804077 
	C113.795280,329.768616 113.630463,329.424255 113.711533,328.978699 
	C113.962646,329.083435 113.967873,329.289337 113.966591,329.804077 
z"
  />
</svg>
